<svg width="370" height="48" viewBox="0 0 370 48" fill="none" xmlns="http://www.w3.org/2000/svg">
<path d="M33.998 0.739868C29.7289 0.739868 25.7953 3.05898 23.7289 6.79501L0.9375 48H6.33551C10.2094 48 13.7846 45.9153 15.6917 42.5423L39.3363 0.739868H33.998Z" fill="#375370"/>
<path d="M49.8141 0C46.6127 0 43.6456 1.6773 41.9959 4.42073L38.5264 10.191H60.5197C63.9969 10.191 67.2535 8.48915 69.2402 5.63391L73.16 0H49.8156H49.8141Z" fill="#375370"/>
<path d="M34.1738 16.5202L30.3428 22.56H50.1334C54.3658 22.56 57.7985 19.1288 57.7985 14.895V13.5884H39.5059C37.343 13.5884 35.3318 14.6943 34.1738 16.5202Z" fill="#375370"/>
<path d="M29.7012 25.564L38.0938 39.88L39.9121 42.916C41.8007 46.07 45.2059 48 48.8822 48H55.0292L41.6445 25.564H29.7012Z" fill="#375370"/>
<path d="M102.076 29.1423L99.6095 34.426H98.0098L107.807 13.3597L117.06 34.426H115.491L113.156 29.1423H102.079H102.076ZM107.741 16.9132L102.747 27.701H112.509L107.738 16.9132H107.741Z" fill="#375370"/>
<path d="M144.494 34.4229L135.85 23.924H138.412C139.99 23.924 141.273 23.7221 142.255 23.3152C142.979 22.9735 143.609 22.4547 144.143 21.7621C144.678 21.0694 144.945 20.3053 144.945 19.4728C144.945 18.7273 144.721 18.016 144.274 17.3451C143.827 16.6741 143.187 16.1243 142.354 15.6957C141.522 15.2701 140.562 15.0558 139.472 15.0558H133.644V34.4229H132.203V13.6145H139.472C140.453 13.6145 141.37 13.7698 142.224 14.0773C143.078 14.3879 143.823 14.829 144.463 15.4068C145.081 15.9628 145.557 16.5902 145.889 17.2953C146.218 18.0004 146.386 18.7242 146.386 19.4728C146.386 20.6469 146.035 21.6968 145.33 22.6256C144.625 23.5543 143.792 24.2222 142.833 24.626C142.171 24.9242 141.525 25.1105 140.894 25.1851C140.264 25.2596 139.599 25.2969 138.894 25.2969L146.417 34.4198H144.497L144.494 34.4229Z" fill="#375370"/>
<path d="M162.612 34.4229V13.6144H176.09V15.0868H164.054V23.2809H173.434V24.7533H164.054V32.9164H176.09V34.4198H162.612V34.4229Z" fill="#375370"/>
<path d="M201.732 34.6465C199.831 34.6465 198.073 34.1713 196.449 33.2208C194.827 32.2703 193.544 30.9812 192.606 29.3473C191.668 27.7135 191.199 25.9367 191.199 24.0171C191.199 22.0975 191.668 20.3208 192.606 18.6869C193.544 17.053 194.827 15.7639 196.449 14.8134C198.07 13.8629 199.831 13.3877 201.732 13.3877C203.633 13.3877 205.391 13.8629 207.016 14.8134C208.637 15.7639 209.917 17.053 210.858 18.6869C211.796 20.3208 212.265 22.0975 212.265 24.0171C212.265 25.9367 211.796 27.7135 210.858 29.3473C209.92 30.9812 208.637 32.2734 207.016 33.2208C205.395 34.1713 203.633 34.6465 201.732 34.6465ZM201.732 14.8631C200.089 14.8631 198.573 15.2731 197.185 16.0963C195.796 16.9194 194.694 18.0284 193.871 19.4262C193.047 20.824 192.637 22.3553 192.637 24.0202C192.637 25.6851 193.047 27.2165 193.871 28.6143C194.691 30.0121 195.796 31.121 197.185 31.9441C198.573 32.7673 200.086 33.1773 201.732 33.1773C203.379 33.1773 204.891 32.7673 206.277 31.9441C207.665 31.1241 208.762 30.0121 209.575 28.6143C210.386 27.2165 210.793 25.6851 210.793 24.0202C210.793 22.3553 210.386 20.824 209.575 19.4262C208.765 18.0284 207.665 16.9194 206.277 16.0963C204.888 15.2763 203.375 14.8631 201.732 14.8631Z" fill="#375370"/>
<path d="M227.374 34.4229V13.6145H240.852V15.0868H228.815V23.281H238.227V24.7844H228.815V34.4198H227.374V34.4229Z" fill="#375370"/>
<path d="M266.207 34.6465C264.306 34.6465 262.548 34.1713 260.923 33.2208C259.302 32.2703 258.019 30.9812 257.081 29.3473C256.143 27.7135 255.674 25.9367 255.674 24.0171C255.674 22.0975 256.143 20.3208 257.081 18.6869C258.019 17.053 259.302 15.7639 260.923 14.8134C262.545 13.8629 264.306 13.3877 266.207 13.3877C268.108 13.3877 269.866 13.8629 271.491 14.8134C273.112 15.7639 274.392 17.053 275.333 18.6869C276.271 20.3208 276.74 22.0975 276.74 24.0171C276.74 25.9367 276.271 27.7135 275.333 29.3473C274.395 30.9812 273.112 32.2734 271.491 33.2208C269.869 34.1713 268.108 34.6465 266.207 34.6465ZM266.207 14.8631C264.564 14.8631 263.048 15.2731 261.659 16.0963C260.271 16.9194 259.168 18.0284 258.345 19.4262C257.522 20.824 257.112 22.3553 257.112 24.0202C257.112 25.6851 257.522 27.2165 258.345 28.6143C259.165 30.0121 260.271 31.121 261.659 31.9441C263.048 32.7673 264.561 33.1773 266.207 33.1773C267.853 33.1773 269.366 32.7673 270.751 31.9441C272.14 31.1241 273.236 30.0121 274.05 28.6143C274.861 27.2165 275.268 25.6851 275.268 24.0202C275.268 22.3553 274.861 20.824 274.05 19.4262C273.239 18.0284 272.14 16.9194 270.751 16.0963C269.363 15.2763 267.85 14.8631 266.207 14.8631Z" fill="#375370"/>
<path d="M304.14 34.4229L295.495 23.924H298.058C299.636 23.924 300.919 23.7221 301.9 23.3152C302.624 22.9735 303.255 22.4547 303.789 21.7621C304.323 21.0694 304.59 20.3053 304.59 19.4728C304.59 18.7273 304.367 18.016 303.919 17.3451C303.472 16.6741 302.832 16.1243 302 15.6957C301.167 15.2701 300.207 15.0558 299.117 15.0558H293.29V34.4229H291.849V13.6145H299.117C300.099 13.6145 301.015 13.7698 301.869 14.0773C302.723 14.3879 303.469 14.829 304.109 15.4068C304.727 15.9628 305.202 16.5902 305.535 17.2953C305.864 18.0004 306.032 18.7242 306.032 19.4728C306.032 20.6469 305.681 21.6968 304.975 22.6256C304.27 23.5543 303.438 24.2222 302.478 24.626C301.816 24.9242 301.17 25.1105 300.54 25.1851C299.909 25.2596 299.245 25.2969 298.539 25.2969L306.063 34.4198H304.143L304.14 34.4229Z" fill="#375370"/>
<path d="M338.97 34.4228H331.447C329.546 34.4228 327.797 33.9538 326.198 33.0127C324.598 32.0746 323.328 30.7979 322.39 29.1858C321.451 27.5737 320.982 25.8094 320.982 23.8866C320.982 21.9639 321.451 20.2337 322.39 18.6216C323.328 17.0095 324.598 15.7297 326.198 14.7793C327.797 13.8288 329.549 13.3535 331.447 13.3535C332.898 13.3535 334.289 13.6517 335.625 14.2512C336.958 14.8476 338.116 15.6801 339.098 16.7486L338.042 17.7395C337.187 16.8231 336.184 16.1118 335.032 15.6117C333.879 15.1116 332.683 14.86 331.447 14.86C329.826 14.86 328.319 15.2669 326.934 16.0777C325.545 16.8884 324.449 17.9817 323.635 19.3578C322.824 20.7338 322.417 22.2435 322.417 23.8866C322.417 25.5298 322.821 27.0457 323.635 28.4341C324.446 29.8226 325.545 30.9253 326.934 31.7484C328.322 32.5716 329.826 32.9816 331.447 32.9816H337.467V25.5236H330.615V24.0823H338.97V34.4228Z" fill="#375370"/>
<path d="M355.585 34.4229V13.6144H369.063V15.0868H357.026V23.2809H366.407V24.7533H357.026V32.9164H369.063V34.4198H355.585V34.4229Z" fill="#375370"/>
</svg>
