<svg width="369" height="48" viewBox="0 0 369 48" fill="none" xmlns="http://www.w3.org/2000/svg">
<path d="M33.0605 0.739868C28.7914 0.739868 24.8578 3.05898 22.7914 6.79501L0 48H5.39801C9.27189 48 12.8471 45.9153 14.7542 42.5423L38.3988 0.739868H33.0605Z" fill="white"/>
<path d="M48.8766 0C45.6752 0 42.7081 1.6773 41.0584 4.42073L37.5889 10.191H59.5822C63.0594 10.191 66.316 8.48915 68.3027 5.63391L72.2225 0H48.8781H48.8766Z" fill="white"/>
<path d="M33.2363 16.5202L29.4053 22.56H49.1959C53.4283 22.56 56.861 19.1288 56.861 14.895V13.5884H38.5684C36.4055 13.5884 34.3943 14.6943 33.2363 16.5202Z" fill="white"/>
<path d="M28.7637 25.564L37.1563 39.88L38.9746 42.916C40.8632 46.07 44.2684 48 47.9447 48H54.0917L40.707 25.564H28.7637Z" fill="white"/>
<path d="M101.138 29.1423L98.672 34.426H97.0723L106.869 13.3597L116.123 34.426H114.554L112.218 29.1423H101.141H101.138ZM106.804 16.9132L101.809 27.701H111.572L106.801 16.9132H106.804Z" fill="white"/>
<path d="M143.557 34.4229L134.912 23.924H137.475C139.053 23.924 140.336 23.7221 141.317 23.3152C142.041 22.9735 142.672 22.4547 143.206 21.7621C143.74 21.0694 144.007 20.3053 144.007 19.4728C144.007 18.7273 143.784 18.016 143.336 17.3451C142.889 16.6741 142.249 16.1243 141.417 15.6957C140.584 15.2701 139.624 15.0558 138.534 15.0558H132.707V34.4229H131.266V13.6145H138.534C139.516 13.6145 140.432 13.7698 141.286 14.0773C142.14 14.3879 142.886 14.829 143.526 15.4068C144.144 15.9628 144.619 16.5902 144.952 17.2953C145.281 18.0004 145.449 18.7242 145.449 19.4728C145.449 20.6469 145.098 21.6968 144.392 22.6256C143.687 23.5543 142.855 24.2222 141.895 24.626C141.233 24.9242 140.587 25.1105 139.957 25.1851C139.326 25.2596 138.661 25.2969 137.956 25.2969L145.48 34.4198H143.56L143.557 34.4229Z" fill="white"/>
<path d="M161.675 34.4229V13.6144H175.153V15.0868H163.116V23.2809H172.497V24.7533H163.116V32.9164H175.153V34.4198H161.675V34.4229Z" fill="white"/>
<path d="M200.795 34.6465C198.894 34.6465 197.136 34.1713 195.511 33.2208C193.89 32.2703 192.607 30.9812 191.669 29.3473C190.731 27.7135 190.262 25.9367 190.262 24.0171C190.262 22.0975 190.731 20.3208 191.669 18.6869C192.607 17.053 193.89 15.7639 195.511 14.8134C197.133 13.8629 198.894 13.3877 200.795 13.3877C202.696 13.3877 204.454 13.8629 206.078 14.8134C207.7 15.7639 208.98 17.053 209.921 18.6869C210.859 20.3208 211.328 22.0975 211.328 24.0171C211.328 25.9367 210.859 27.7135 209.921 29.3473C208.983 30.9812 207.7 32.2734 206.078 33.2208C204.457 34.1713 202.696 34.6465 200.795 34.6465ZM200.795 14.8631C199.152 14.8631 197.636 15.2731 196.247 16.0963C194.859 16.9194 193.756 18.0284 192.933 19.4262C192.11 20.824 191.7 22.3553 191.7 24.0202C191.7 25.6851 192.11 27.2165 192.933 28.6143C193.753 30.0121 194.859 31.121 196.247 31.9441C197.636 32.7673 199.149 33.1773 200.795 33.1773C202.441 33.1773 203.954 32.7673 205.339 31.9441C206.728 31.1241 207.824 30.0121 208.638 28.6143C209.449 27.2165 209.856 25.6851 209.856 24.0202C209.856 22.3553 209.449 20.824 208.638 19.4262C207.827 18.0284 206.728 16.9194 205.339 16.0963C203.951 15.2763 202.438 14.8631 200.795 14.8631Z" fill="white"/>
<path d="M226.437 34.4229V13.6145H239.914V15.0868H227.878V23.281H237.29V24.7844H227.878V34.4198H226.437V34.4229Z" fill="white"/>
<path d="M265.269 34.6465C263.368 34.6465 261.61 34.1713 259.986 33.2208C258.364 32.2703 257.082 30.9812 256.143 29.3473C255.205 27.7135 254.736 25.9367 254.736 24.0171C254.736 22.0975 255.205 20.3208 256.143 18.6869C257.082 17.053 258.364 15.7639 259.986 14.8134C261.607 13.8629 263.368 13.3877 265.269 13.3877C267.17 13.3877 268.929 13.8629 270.553 14.8134C272.175 15.7639 273.454 17.053 274.395 18.6869C275.334 20.3208 275.803 22.0975 275.803 24.0171C275.803 25.9367 275.334 27.7135 274.395 29.3473C273.457 30.9812 272.175 32.2734 270.553 33.2208C268.932 34.1713 267.17 34.6465 265.269 34.6465ZM265.269 14.8631C263.626 14.8631 262.11 15.2731 260.722 16.0963C259.334 16.9194 258.231 18.0284 257.408 19.4262C256.585 20.824 256.174 22.3553 256.174 24.0202C256.174 25.6851 256.585 27.2165 257.408 28.6143C258.228 30.0121 259.334 31.121 260.722 31.9441C262.11 32.7673 263.623 33.1773 265.269 33.1773C266.916 33.1773 268.428 32.7673 269.814 31.9441C271.202 31.1241 272.299 30.0121 273.113 28.6143C273.923 27.2165 274.33 25.6851 274.33 24.0202C274.33 22.3553 273.923 20.824 273.113 19.4262C272.302 18.0284 271.202 16.9194 269.814 16.0963C268.425 15.2763 266.913 14.8631 265.269 14.8631Z" fill="white"/>
<path d="M303.202 34.4229L294.558 23.924H297.12C298.698 23.924 299.981 23.7221 300.963 23.3152C301.687 22.9735 302.317 22.4547 302.851 21.7621C303.386 21.0694 303.653 20.3053 303.653 19.4728C303.653 18.7273 303.429 18.016 302.982 17.3451C302.535 16.6741 301.895 16.1243 301.062 15.6957C300.23 15.2701 299.27 15.0558 298.18 15.0558H292.352V34.4229H290.911V13.6145H298.18C299.161 13.6145 300.078 13.7698 300.932 14.0773C301.786 14.3879 302.531 14.829 303.171 15.4068C303.789 15.9628 304.265 16.5902 304.597 17.2953C304.926 18.0004 305.094 18.7242 305.094 19.4728C305.094 20.6469 304.743 21.6968 304.038 22.6256C303.333 23.5543 302.5 24.2222 301.541 24.626C300.879 24.9242 300.233 25.1105 299.602 25.1851C298.972 25.2596 298.307 25.2969 297.602 25.2969L305.125 34.4198H303.205L303.202 34.4229Z" fill="white"/>
<path d="M338.033 34.4228H330.51C328.609 34.4228 326.86 33.9538 325.26 33.0127C323.661 32.0746 322.39 30.7979 321.452 29.1858C320.514 27.5737 320.045 25.8094 320.045 23.8866C320.045 21.9639 320.514 20.2337 321.452 18.6216C322.39 17.0095 323.661 15.7297 325.26 14.7793C326.86 13.8288 328.612 13.3535 330.51 13.3535C331.96 13.3535 333.352 13.6517 334.688 14.2512C336.02 14.8476 337.179 15.6801 338.16 16.7486L337.104 17.7395C336.25 16.8231 335.247 16.1118 334.094 15.6117C332.942 15.1116 331.746 14.86 330.51 14.86C328.888 14.86 327.382 15.2669 325.996 16.0777C324.608 16.8884 323.511 17.9817 322.698 19.3578C321.887 20.7338 321.48 22.2435 321.48 23.8866C321.48 25.5298 321.884 27.0457 322.698 28.4341C323.508 29.8226 324.608 30.9253 325.996 31.7484C327.385 32.5716 328.888 32.9816 330.51 32.9816H336.53V25.5236H329.677V24.0823H338.033V34.4228Z" fill="white"/>
<path d="M354.647 34.4229V13.6144H368.125V15.0868H356.089V23.2809H365.469V24.7533H356.089V32.9164H368.125V34.4198H354.647V34.4229Z" fill="white"/>
</svg>
